# xmcd
# 
# Track frame offsets:
#     150
#     42003
#     72468
#     105628
#     117324
#     152278
#     186399
#     219269
#     264870
# 
# Disc length: 3896
# 
# Revision: 1
# Processed by: cddbd v1.5.2PL0 Copyright (c) Steve Scherf et al.
# Submitted via: BonkEnc v1.0.8
# 
DISCID=730f3609
DTITLE=Andy Parsons, Gene Lewin, Ben Monder, Mike Holober, Scott Colley - Fundamentia
DYEAR=1997
DGENRE=Contemporary Jazz
TTITLE0=Idea Man
TTITLE1=Bitter Cup
TTITLE2=We're All In This Alome
TTITLE3=Puritans And Libertines
TTITLE4=Blue
TTITLE5=Snide Clone
TTITLE6=Jealousy Zealously Fell Asleep
TTITLE7=Fundamenta
TTITLE8=Same Place, Same Time
EXTD=YEAR: 1997
EXTT0=
EXTT1=
EXTT2=
EXTT3=
EXTT4=
EXTT5=
EXTT6=
EXTT7=
EXTT8=
PLAYORDER=
